<?xml version="1.0" encoding="UTF-8" standalone="no"?>
<!-- Created with Inkscape (http://www.inkscape.org/) -->

<svg
   xmlns:dc="http://purl.org/dc/elements/1.1/"
   xmlns:cc="http://creativecommons.org/ns#"
   xmlns:rdf="http://www.w3.org/1999/02/22-rdf-syntax-ns#"
   xmlns:svg="http://www.w3.org/2000/svg"
   xmlns="http://www.w3.org/2000/svg"
   xmlns:sodipodi="http://sodipodi.sourceforge.net/DTD/sodipodi-0.dtd"
   xmlns:inkscape="http://www.inkscape.org/namespaces/inkscape"
   width="210mm"
   height="297mm"
   viewBox="0 0 210 297"
   version="1.1"
   id="svg4774"
   sodipodi:docname="dessin1.svg"
   inkscape:version="0.92.1 unknown">
  <defs
     id="defs4768" />
  <sodipodi:namedview
     id="base"
     pagecolor="#ffffff"
     bordercolor="#666666"
     borderopacity="1.0"
     inkscape:pageopacity="0.0"
     inkscape:pageshadow="2"
     inkscape:zoom="0.35"
     inkscape:cx="400"
     inkscape:cy="560"
     inkscape:document-units="mm"
     inkscape:current-layer="layer1"
     showgrid="false"
     inkscape:window-width="1855"
     inkscape:window-height="1056"
     inkscape:window-x="65"
     inkscape:window-y="24"
     inkscape:window-maximized="1" />
  <metadata
     id="metadata4771">
    <rdf:RDF>
      <cc:Work
         rdf:about="">
        <dc:format>image/svg+xml</dc:format>
        <dc:type
           rdf:resource="http://purl.org/dc/dcmitype/StillImage" />
        <dc:title></dc:title>
      </cc:Work>
    </rdf:RDF>
  </metadata>
  <g
     inkscape:label="Calque 1"
     inkscape:groupmode="layer"
     id="layer1">
    <g
       aria-label="DATA VISUALISATION"
       transform="matrix(0.26458333,0,0,0.26458333,-5.2916667,1.5119048)"
       style="font-style:normal;font-variant:normal;font-weight:normal;font-stretch:normal;font-size:40px;line-height:25px;font-family:impact;-inkscape-font-specification:impact;letter-spacing:0px;word-spacing:0px;fill:#ffffff;fill-opacity:1;stroke:none"
       id="flowRoot4838">
      <path
         d="m 46.794922,43.805068 h 14.765625 q 14.296875,0 19.3125,1.3125 5.0625,1.3125 7.6875,4.3125 2.625,3 3.28125,6.703125 0.65625,3.65625 0.65625,14.4375 v 26.578125 q 0,10.218752 -0.984375,13.687502 -0.9375,3.42187 -3.328125,5.39062 -2.390625,1.92188 -5.90625,2.71875 -3.515625,0.75 -10.59375,0.75 H 46.794922 Z m 19.734375,12.984375 v 49.921877 q 4.265625,0 5.25,-1.6875 0.984375,-1.73438 0.984375,-9.328127 V 66.211318 q 0,-5.15625 -0.328125,-6.609375 -0.328125,-1.453125 -1.5,-2.109375 -1.171875,-0.703125 -4.40625,-0.703125 z"
         style="font-style:normal;font-variant:normal;font-weight:normal;font-stretch:normal;font-size:96px;font-family:impact;-inkscape-font-specification:impact;fill:#ffffff"
         id="path4846" />
      <path
         d="m 133.93555,43.805068 11.29687,75.890622 H 125.0293 l -0.98438,-13.64062 h -7.07812 l -1.17188,13.64062 H 95.357422 L 105.38867,43.805068 Z m -10.45313,48.796875 q -1.5,-12.890625 -3,-31.828125 -3,21.75 -3.75,31.828125 z"
         style="font-style:normal;font-variant:normal;font-weight:normal;font-stretch:normal;font-size:96px;font-family:impact;-inkscape-font-specification:impact;fill:#ffffff"
         id="path4848" />
      <path
         d="m 183.10742,43.805068 v 15.1875 H 171.38867 V 119.69569 H 151.6543 V 58.992568 h -11.67188 v -15.1875 z"
         style="font-style:normal;font-variant:normal;font-weight:normal;font-stretch:normal;font-size:96px;font-family:impact;-inkscape-font-specification:impact;fill:#ffffff"
         id="path4850" />
      <path
         d="m 217.93555,43.805068 11.29687,75.890622 H 209.0293 l -0.98438,-13.64062 h -7.07812 l -1.17188,13.64062 h -20.4375 l 10.03125,-75.890622 z m -10.45313,48.796875 q -1.5,-12.890625 -3,-31.828125 -3,21.75 -3.75,31.828125 z"
         style="font-style:normal;font-variant:normal;font-weight:normal;font-stretch:normal;font-size:96px;font-family:impact;-inkscape-font-specification:impact;fill:#ffffff"
         id="path4852" />
      <path
         d="M 296.35742,43.805068 286.32617,119.69569 H 256.37305 L 244.98242,43.805068 h 20.8125 q 3.60938,31.359375 5.15625,53.015625 1.54688,-21.890625 3.23438,-38.90625 l 1.35937,-14.109375 z"
         style="font-style:normal;font-variant:normal;font-weight:normal;font-stretch:normal;font-size:96px;font-family:impact;-inkscape-font-specification:impact;fill:#ffffff"
         id="path4854" />
      <path
         d="M 319.4668,43.805068 V 119.69569 H 299.73242 V 43.805068 Z"
         style="font-style:normal;font-variant:normal;font-weight:normal;font-stretch:normal;font-size:96px;font-family:impact;-inkscape-font-specification:impact;fill:#ffffff"
         id="path4856" />
      <path
         d="M 369.29492,66.773818 H 350.9668 v -5.625 q 0,-3.9375 -0.70313,-5.015625 -0.70312,-1.078125 -2.34375,-1.078125 -1.78125,0 -2.71875,1.453125 -0.89062,1.453125 -0.89062,4.40625 0,3.796875 1.03125,5.71875 0.98437,1.921875 5.57812,4.640625 13.17188,7.828125 16.59375,12.84375 3.42188,5.015625 3.42188,16.171872 0,8.10938 -1.92188,11.95313 -1.875,3.84375 -7.3125,6.46875 -5.4375,2.57812 -12.65625,2.57812 -7.92187,0 -13.54687,-3 -5.57813,-3 -7.3125,-7.64062 -1.73438,-4.64063 -1.73438,-13.171877 v -4.96875 h 18.32813 v 9.234377 q 0,4.26562 0.75,5.48437 0.79687,1.21875 2.76562,1.21875 1.96875,0 2.90625,-1.54687 0.98438,-1.54688 0.98438,-4.59375 0,-6.703127 -1.82813,-8.765627 -1.875,-2.0625 -9.23437,-6.890625 -7.35938,-4.875 -9.75,-7.078125 -2.39063,-2.203125 -3.98438,-6.09375 -1.54687,-3.890625 -1.54687,-9.9375 0,-8.71875 2.20312,-12.75 2.25,-4.03125 7.21875,-6.28125 4.96875,-2.296875 12,-2.296875 7.6875,0 13.07813,2.484375 5.4375,2.484375 7.17187,6.28125 1.78125,3.75 1.78125,12.796875 z"
         style="font-style:normal;font-variant:normal;font-weight:normal;font-stretch:normal;font-size:96px;font-family:impact;-inkscape-font-specification:impact;fill:#ffffff"
         id="path4858" />
      <path
         d="m 422.0293,43.805068 v 50.71875 q 0,8.625002 -0.5625,12.140622 -0.5625,3.46875 -3.32813,7.17188 -2.76562,3.65625 -7.3125,5.57812 -4.5,1.875 -10.64062,1.875 -6.79688,0 -12,-2.25 -5.20313,-2.25 -7.78125,-5.85937 -2.57813,-3.60938 -3.04688,-7.59375 -0.46875,-4.03125 -0.46875,-16.875002 v -44.90625 h 19.73438 v 56.906252 q 0,4.96875 0.51562,6.375 0.5625,1.35937 2.20313,1.35937 1.875,0 2.39062,-1.5 0.5625,-1.54687 0.5625,-7.218747 V 43.805068 Z"
         style="font-style:normal;font-variant:normal;font-weight:normal;font-stretch:normal;font-size:96px;font-family:impact;-inkscape-font-specification:impact;fill:#ffffff"
         id="path4860" />
      <path
         d="m 463.74805,43.805068 11.29687,75.890622 H 454.8418 l -0.98438,-13.64062 h -7.07812 l -1.17188,13.64062 h -20.4375 l 10.03125,-75.890622 z m -10.45313,48.796875 q -1.5,-12.890625 -3,-31.828125 -3,21.75 -3.75,31.828125 z"
         style="font-style:normal;font-variant:normal;font-weight:normal;font-stretch:normal;font-size:96px;font-family:impact;-inkscape-font-specification:impact;fill:#ffffff"
         id="path4862" />
      <path
         d="m 498.1543,43.805068 v 60.703122 h 12 v 15.1875 H 478.41992 V 43.805068 Z"
         style="font-style:normal;font-variant:normal;font-weight:normal;font-stretch:normal;font-size:96px;font-family:impact;-inkscape-font-specification:impact;fill:#ffffff"
         id="path4864" />
      <path
         d="M 534.7168,43.805068 V 119.69569 H 514.98242 V 43.805068 Z"
         style="font-style:normal;font-variant:normal;font-weight:normal;font-stretch:normal;font-size:96px;font-family:impact;-inkscape-font-specification:impact;fill:#ffffff"
         id="path4866" />
      <path
         d="M 584.54492,66.773818 H 566.2168 v -5.625 q 0,-3.9375 -0.70313,-5.015625 -0.70312,-1.078125 -2.34375,-1.078125 -1.78125,0 -2.71875,1.453125 -0.89062,1.453125 -0.89062,4.40625 0,3.796875 1.03125,5.71875 0.98437,1.921875 5.57812,4.640625 13.17188,7.828125 16.59375,12.84375 3.42188,5.015625 3.42188,16.171872 0,8.10938 -1.92188,11.95313 -1.875,3.84375 -7.3125,6.46875 -5.4375,2.57812 -12.65625,2.57812 -7.92187,0 -13.54687,-3 -5.57813,-3 -7.3125,-7.64062 -1.73438,-4.64063 -1.73438,-13.171877 v -4.96875 h 18.32813 v 9.234377 q 0,4.26562 0.75,5.48437 0.79687,1.21875 2.76562,1.21875 1.96875,0 2.90625,-1.54687 0.98438,-1.54688 0.98438,-4.59375 0,-6.703127 -1.82813,-8.765627 -1.875,-2.0625 -9.23437,-6.890625 -7.35938,-4.875 -9.75,-7.078125 -2.39063,-2.203125 -3.98438,-6.09375 -1.54687,-3.890625 -1.54687,-9.9375 0,-8.71875 2.20312,-12.75 2.25,-4.03125 7.21875,-6.28125 4.96875,-2.296875 12,-2.296875 7.6875,0 13.07813,2.484375 5.4375,2.484375 7.17187,6.28125 1.78125,3.75 1.78125,12.796875 z"
         style="font-style:normal;font-variant:normal;font-weight:normal;font-stretch:normal;font-size:96px;font-family:impact;-inkscape-font-specification:impact;fill:#ffffff"
         id="path4868" />
      <path
         d="m 626.49805,43.805068 11.29687,75.890622 H 617.5918 l -0.98438,-13.64062 h -7.07812 l -1.17188,13.64062 h -20.4375 l 10.03125,-75.890622 z m -10.45313,48.796875 q -1.5,-12.890625 -3,-31.828125 -3,21.75 -3.75,31.828125 z"
         style="font-style:normal;font-variant:normal;font-weight:normal;font-stretch:normal;font-size:96px;font-family:impact;-inkscape-font-specification:impact;fill:#ffffff"
         id="path4870" />
      <path
         d="m 675.66992,43.805068 v 15.1875 H 663.95117 V 119.69569 H 644.2168 V 58.992568 h -11.67188 v -15.1875 z"
         style="font-style:normal;font-variant:normal;font-weight:normal;font-stretch:normal;font-size:96px;font-family:impact;-inkscape-font-specification:impact;fill:#ffffff"
         id="path4872" />
      <path
         d="M 699.9043,43.805068 V 119.69569 H 680.16992 V 43.805068 Z"
         style="font-style:normal;font-variant:normal;font-weight:normal;font-stretch:normal;font-size:96px;font-family:impact;-inkscape-font-specification:impact;fill:#ffffff"
         id="path4874" />
      <path
         d="m 753.01367,88.242568 q 0,11.4375 -0.5625,16.218752 -0.51562,4.73437 -3.375,8.67187 -2.8125,3.9375 -7.64062,6.04688 -4.82813,2.10937 -11.25,2.10937 -6.09375,0 -10.96875,-1.96875 -4.82813,-2.01562 -7.78125,-6 -2.95313,-3.98437 -3.51563,-8.67187 -0.5625,-4.687502 -0.5625,-16.406252 V 75.258193 q 0,-11.4375 0.51563,-16.171875 0.5625,-4.78125 3.375,-8.71875 2.85937,-3.9375 7.6875,-6.046875 4.82812,-2.109375 11.25,-2.109375 6.09375,0 10.92187,2.015625 4.875,1.96875 7.82813,5.953125 2.95312,3.984375 3.51562,8.671875 0.5625,4.6875 0.5625,16.40625 z m -19.73437,-24.9375 q 0,-5.296875 -0.60938,-6.75 -0.5625,-1.5 -2.39062,-1.5 -1.54688,0 -2.39063,1.21875 -0.79687,1.171875 -0.79687,7.03125 v 35.4375 q 0,6.609372 0.51562,8.156252 0.5625,1.54687 2.53125,1.54687 2.01563,0 2.57813,-1.78125 0.5625,-1.78125 0.5625,-8.484372 z"
         style="font-style:normal;font-variant:normal;font-weight:normal;font-stretch:normal;font-size:96px;font-family:impact;-inkscape-font-specification:impact;fill:#ffffff"
         id="path4876" />
      <path
         d="M 804.48242,43.805068 V 119.69569 H 787.18555 L 776.91992,85.195693 v 34.499997 h -16.5 V 43.805068 h 16.5 l 11.0625,34.171875 V 43.805068 Z"
         style="font-style:normal;font-variant:normal;font-weight:normal;font-stretch:normal;font-size:96px;font-family:impact;-inkscape-font-specification:impact;fill:#ffffff"
         id="path4878" />
    </g>
  </g>
</svg>
