<?xml version="1.0" encoding="UTF-8" standalone="no"?>
<!-- Created with Inkscape (http://www.inkscape.org/) -->

<svg
   xmlns:dc="http://purl.org/dc/elements/1.1/"
   xmlns:cc="http://creativecommons.org/ns#"
   xmlns:rdf="http://www.w3.org/1999/02/22-rdf-syntax-ns#"
   xmlns:svg="http://www.w3.org/2000/svg"
   xmlns="http://www.w3.org/2000/svg"
   xmlns:sodipodi="http://sodipodi.sourceforge.net/DTD/sodipodi-0.dtd"
   xmlns:inkscape="http://www.inkscape.org/namespaces/inkscape"
   width="210mm"
   height="297mm"
   viewBox="0 0 210 297"
   version="1.1"
   id="svg4696"
   inkscape:version="0.92.1 unknown"
   sodipodi:docname="dessin.svg">
  <defs
     id="defs4690" />
  <sodipodi:namedview
     id="base"
     pagecolor="#ffffff"
     bordercolor="#666666"
     borderopacity="1.0"
     inkscape:pageopacity="0.0"
     inkscape:pageshadow="2"
     inkscape:zoom="0.35"
     inkscape:cx="400"
     inkscape:cy="560"
     inkscape:document-units="mm"
     inkscape:current-layer="layer1"
     showgrid="false"
     inkscape:window-width="1855"
     inkscape:window-height="1056"
     inkscape:window-x="65"
     inkscape:window-y="24"
     inkscape:window-maximized="1" />
  <metadata
     id="metadata4693">
    <rdf:RDF>
      <cc:Work
         rdf:about="">
        <dc:format>image/svg+xml</dc:format>
        <dc:type
           rdf:resource="http://purl.org/dc/dcmitype/StillImage" />
        <dc:title></dc:title>
      </cc:Work>
    </rdf:RDF>
  </metadata>
  <g
     inkscape:label="Calque 1"
     inkscape:groupmode="layer"
     id="layer1">
    <g
       aria-label="DATA VISUALISATION"
       transform="matrix(0.26458333,0,0,0.26458333,3.7797619,6.8035714)"
       style="font-style:normal;font-weight:normal;font-size:40px;line-height:25px;font-family:sans-serif;letter-spacing:0px;word-spacing:0px;fill:#000000;fill-opacity:1;stroke:none"
       id="flowRoot4706">
      <path
         d="m 10.322266,3.0513842 h 6.5625 q 6.354167,0 8.583333,0.5833334 2.250001,0.5833333 3.416667,1.9166667 1.166667,1.3333334 1.458334,2.9791668 0.291666,1.6249999 0.291666,6.4166669 v 11.8125 q 0,4.541667 -0.4375,6.083334 -0.416666,1.520833 -1.479166,2.395833 -1.0625,0.854167 -2.625001,1.208334 -1.5625,0.333333 -4.708333,0.333333 h -11.0625 z m 8.770833,5.7708335 V 31.009718 q 1.895834,0 2.333334,-0.75 0.4375,-0.770833 0.4375,-4.145833 V 13.009718 q 0,-2.291667 -0.145834,-2.9375 -0.145833,-0.6458336 -0.666666,-0.9375003 -0.520834,-0.3125 -1.958334,-0.3125 z"
         style="font-style:normal;font-variant:normal;font-weight:normal;font-stretch:normal;font-size:42.66666794px;font-family:impact;-inkscape-font-specification:impact;fill:#ffffff"
         id="path4714" />
      <path
         d="M 49.051433,3.0513842 54.072267,36.780552 H 45.0931 l -0.4375,-6.0625 h -3.145833 l -0.520834,6.0625 H 31.9056 L 36.363933,3.0513842 Z M 44.4056,24.738885 Q 43.738933,19.009718 43.072267,10.593051 41.738933,20.259718 41.4056,24.738885 Z"
         style="font-style:normal;font-variant:normal;font-weight:normal;font-stretch:normal;font-size:42.66666794px;font-family:impact;-inkscape-font-specification:impact;fill:#ffffff"
         id="path4716" />
      <path
         d="M 70.905601,3.0513842 V 9.8013844 H 65.697267 V 36.780552 H 56.926434 V 9.8013844 h -5.1875 V 3.0513842 Z"
         style="font-style:normal;font-variant:normal;font-weight:normal;font-stretch:normal;font-size:42.66666794px;font-family:impact;-inkscape-font-specification:impact;fill:#ffffff"
         id="path4718" />
      <path
         d="m 86.384767,3.0513842 5.020834,33.7291678 h -8.979167 l -0.4375,-6.0625 h -3.145833 l -0.520834,6.0625 H 69.238934 L 73.697267,3.0513842 Z M 81.738934,24.738885 q -0.666667,-5.729167 -1.333333,-14.145834 -1.333334,9.666667 -1.666667,14.145834 z"
         style="font-style:normal;font-variant:normal;font-weight:normal;font-stretch:normal;font-size:42.66666794px;font-family:impact;-inkscape-font-specification:impact;fill:#ffffff"
         id="path4720" />
      <path
         d="M 121.23894,3.0513842 116.7806,36.780552 H 103.4681 L 98.405601,3.0513842 h 9.249999 q 1.60417,13.9375008 2.29167,23.5625008 0.6875,-9.729167 1.4375,-17.2916673 l 0.60417,-6.2708335 z"
         style="font-style:normal;font-variant:normal;font-weight:normal;font-stretch:normal;font-size:42.66666794px;font-family:impact;-inkscape-font-specification:impact;fill:#ffffff"
         id="path4722" />
      <path
         d="M 131.50977,3.0513842 V 36.780552 h -8.77083 V 3.0513842 Z"
         style="font-style:normal;font-variant:normal;font-weight:normal;font-stretch:normal;font-size:42.66666794px;font-family:impact;-inkscape-font-specification:impact;fill:#ffffff"
         id="path4724" />
      <path
         d="m 153.6556,13.259718 h -8.14583 v -2.5 q 0,-1.7500003 -0.3125,-2.2291669 -0.3125,-0.4791667 -1.04167,-0.4791667 -0.79167,0 -1.20833,0.6458333 -0.39584,0.6458334 -0.39584,1.9583333 0,1.6875 0.45834,2.541667 0.4375,0.854167 2.47916,2.0625 5.85417,3.479167 7.375,5.708333 1.52084,2.229167 1.52084,7.187501 0,3.604166 -0.85417,5.3125 -0.83333,1.708333 -3.25,2.875 -2.41667,1.145833 -5.625,1.145833 -3.52083,0 -6.02083,-1.333333 -2.47917,-1.333333 -3.25,-3.395834 -0.77084,-2.0625 -0.77084,-5.854166 v -2.208334 h 8.14584 v 4.104167 q 0,1.895833 0.33333,2.4375 0.35417,0.541667 1.22917,0.541667 0.875,0 1.29166,-0.6875 0.4375,-0.6875 0.4375,-2.041667 0,-2.979167 -0.8125,-3.895833 -0.83333,-0.916667 -4.10416,-3.062501 -3.27084,-2.166666 -4.33334,-3.145833 -1.0625,-0.979167 -1.77083,-2.708333 -0.6875,-1.729167 -0.6875,-4.416667 0,-3.8750003 0.97917,-5.666667 1,-1.7916667 3.20833,-2.7916668 2.20833,-1.0208333 5.33333,-1.0208333 3.41667,0 5.8125,1.1041667 2.41667,1.1041667 3.1875,2.7916667 0.79167,1.6666667 0.79167,5.6874997 z"
         style="font-style:normal;font-variant:normal;font-weight:normal;font-stretch:normal;font-size:42.66666794px;font-family:impact;-inkscape-font-specification:impact;fill:#ffffff"
         id="path4726" />
      <path
         d="M 177.09311,3.0513842 V 25.593052 q 0,3.833333 -0.25,5.395833 -0.25,1.541667 -1.47917,3.1875 -1.22916,1.625 -3.25,2.479167 -2,0.833333 -4.72916,0.833333 -3.02084,0 -5.33334,-1 -2.3125,-1 -3.45833,-2.604167 -1.14583,-1.604166 -1.35417,-3.375 -0.20833,-1.791666 -0.20833,-7.5 V 3.0513842 h 8.77083 V 28.343052 q 0,2.208333 0.22917,2.833333 0.25,0.604167 0.97917,0.604167 0.83333,0 1.0625,-0.666667 0.25,-0.6875 0.25,-3.208333 V 3.0513842 Z"
         style="font-style:normal;font-variant:normal;font-weight:normal;font-stretch:normal;font-size:42.66666794px;font-family:impact;-inkscape-font-specification:impact;fill:#ffffff"
         id="path4728" />
      <path
         d="m 195.63477,3.0513842 5.02083,33.7291678 h -8.97916 l -0.4375,-6.0625 h -3.14584 l -0.52083,6.0625 h -9.08333 l 4.45833,-33.7291678 z m -4.64583,21.6875008 q -0.66667,-5.729167 -1.33334,-14.145834 -1.33333,9.666667 -1.66666,14.145834 z"
         style="font-style:normal;font-variant:normal;font-weight:normal;font-stretch:normal;font-size:42.66666794px;font-family:impact;-inkscape-font-specification:impact;fill:#ffffff"
         id="path4730" />
      <path
         d="M 210.92644,3.0513842 V 30.030552 h 5.33334 v 6.75 H 202.15561 V 3.0513842 Z"
         style="font-style:normal;font-variant:normal;font-weight:normal;font-stretch:normal;font-size:42.66666794px;font-family:impact;-inkscape-font-specification:impact;fill:#ffffff"
         id="path4732" />
      <path
         d="M 227.17644,3.0513842 V 36.780552 h -8.77083 V 3.0513842 Z"
         style="font-style:normal;font-variant:normal;font-weight:normal;font-stretch:normal;font-size:42.66666794px;font-family:impact;-inkscape-font-specification:impact;fill:#ffffff"
         id="path4734" />
      <path
         d="m 249.32227,13.259718 h -8.14583 v -2.5 q 0,-1.7500003 -0.3125,-2.2291669 -0.3125,-0.4791667 -1.04167,-0.4791667 -0.79167,0 -1.20833,0.6458333 -0.39584,0.6458334 -0.39584,1.9583333 0,1.6875 0.45834,2.541667 0.4375,0.854167 2.47916,2.0625 5.85417,3.479167 7.375,5.708333 1.52084,2.229167 1.52084,7.187501 0,3.604166 -0.85417,5.3125 -0.83333,1.708333 -3.25,2.875 -2.41667,1.145833 -5.625,1.145833 -3.52083,0 -6.02083,-1.333333 -2.47917,-1.333333 -3.25,-3.395834 -0.77084,-2.0625 -0.77084,-5.854166 v -2.208334 h 8.14584 v 4.104167 q 0,1.895833 0.33333,2.4375 0.35417,0.541667 1.22917,0.541667 0.875,0 1.29166,-0.6875 0.4375,-0.6875 0.4375,-2.041667 0,-2.979167 -0.8125,-3.895833 -0.83333,-0.916667 -4.10416,-3.062501 -3.27084,-2.166666 -4.33334,-3.145833 -1.0625,-0.979167 -1.77083,-2.708333 -0.6875,-1.729167 -0.6875,-4.416667 0,-3.8750003 0.97917,-5.666667 1,-1.7916667 3.20833,-2.7916668 2.20833,-1.0208333 5.33333,-1.0208333 3.41667,0 5.8125,1.1041667 2.41667,1.1041667 3.1875,2.7916667 0.79167,1.6666667 0.79167,5.6874997 z"
         style="font-style:normal;font-variant:normal;font-weight:normal;font-stretch:normal;font-size:42.66666794px;font-family:impact;-inkscape-font-specification:impact;fill:#ffffff"
         id="path4736" />
      <path
         d="m 267.9681,3.0513842 5.02083,33.7291678 h -8.97916 l -0.4375,-6.0625 h -3.14584 l -0.52083,6.0625 h -9.08333 L 255.2806,3.0513842 Z m -4.64583,21.6875008 q -0.66667,-5.729167 -1.33334,-14.145834 -1.33333,9.666667 -1.66666,14.145834 z"
         style="font-style:normal;font-variant:normal;font-weight:normal;font-stretch:normal;font-size:42.66666794px;font-family:impact;-inkscape-font-specification:impact;fill:#ffffff"
         id="path4738" />
      <path
         d="m 289.82228,3.0513842 v 6.7500002 h -5.20834 V 36.780552 h -8.77083 V 9.8013844 h -5.1875 V 3.0513842 Z"
         style="font-style:normal;font-variant:normal;font-weight:normal;font-stretch:normal;font-size:42.66666794px;font-family:impact;-inkscape-font-specification:impact;fill:#ffffff"
         id="path4740" />
      <path
         d="M 300.5931,3.0513842 V 36.780552 h -8.77083 V 3.0513842 Z"
         style="font-style:normal;font-variant:normal;font-weight:normal;font-stretch:normal;font-size:42.66666794px;font-family:impact;-inkscape-font-specification:impact;fill:#ffffff"
         id="path4742" />
      <path
         d="m 324.19728,22.801385 q 0,5.083333 -0.25,7.208333 -0.22917,2.104167 -1.5,3.854167 -1.25,1.75 -3.39584,2.6875 -2.14583,0.9375 -5,0.9375 -2.70833,0 -4.875,-0.875 -2.14583,-0.895833 -3.45833,-2.666667 -1.3125,-1.770833 -1.5625,-3.854166 -0.25,-2.083334 -0.25,-7.291667 v -5.770834 q 0,-5.083333 0.22917,-7.1874999 0.25,-2.1250001 1.5,-3.8750001 1.27083,-1.7500001 3.41666,-2.6875001 2.14584,-0.9375 5,-0.9375 2.70834,0 4.85417,0.8958333 2.16667,0.8750001 3.47917,2.6458334 1.3125,1.7708334 1.5625,3.8541668 0.25,2.0833336 0.25,7.2916666 z m -8.77084,-11.083334 q 0,-2.3541666 -0.27083,-2.9999999 -0.25,-0.6666667 -1.0625,-0.6666667 -0.6875,0 -1.0625,0.5416667 -0.35417,0.5208333 -0.35417,3.1249999 v 15.750001 q 0,2.9375 0.22917,3.625 0.25,0.6875 1.125,0.6875 0.89583,0 1.14583,-0.791667 0.25,-0.791667 0.25,-3.770833 z"
         style="font-style:normal;font-variant:normal;font-weight:normal;font-stretch:normal;font-size:42.66666794px;font-family:impact;-inkscape-font-specification:impact;fill:#ffffff"
         id="path4744" />
      <path
         d="M 347.07229,3.0513842 V 36.780552 h -7.6875 l -4.5625,-15.333334 v 15.333334 h -7.33334 V 3.0513842 h 7.33334 l 4.91666,15.1875008 V 3.0513842 Z"
         style="font-style:normal;font-variant:normal;font-weight:normal;font-stretch:normal;font-size:42.66666794px;font-family:impact;-inkscape-font-specification:impact;fill:#ffffff"
         id="path4746" />
    </g>
  </g>
</svg>
