<?xml version="1.0" encoding="UTF-8" standalone="no"?>
<!-- Created with Inkscape (http://www.inkscape.org/) -->

<svg
   xmlns:dc="http://purl.org/dc/elements/1.1/"
   xmlns:cc="http://creativecommons.org/ns#"
   xmlns:rdf="http://www.w3.org/1999/02/22-rdf-syntax-ns#"
   xmlns:svg="http://www.w3.org/2000/svg"
   xmlns="http://www.w3.org/2000/svg"
   xmlns:sodipodi="http://sodipodi.sourceforge.net/DTD/sodipodi-0.dtd"
   xmlns:inkscape="http://www.inkscape.org/namespaces/inkscape"
   width="210mm"
   height="297mm"
   viewBox="0 0 744.09448819 1052.3622047"
   id="svg4155"
   version="1.1"
   inkscape:version="0.91 r13725"
   sodipodi:docname="Ninja.svg">
  <defs
     id="defs4157" />
  <sodipodi:namedview
     id="base"
     pagecolor="#ffffff"
     bordercolor="#666666"
     borderopacity="1.0"
     inkscape:pageopacity="0.0"
     inkscape:pageshadow="2"
     inkscape:zoom="0.35"
     inkscape:cx="-67.857143"
     inkscape:cy="520"
     inkscape:document-units="px"
     inkscape:current-layer="layer1"
     showgrid="false"
     inkscape:window-width="1366"
     inkscape:window-height="706"
     inkscape:window-x="-8"
     inkscape:window-y="-8"
     inkscape:window-maximized="1" />
  <metadata
     id="metadata4160">
    <rdf:RDF>
      <cc:Work
         rdf:about="">
        <dc:format>image/svg+xml</dc:format>
        <dc:type
           rdf:resource="http://purl.org/dc/dcmitype/StillImage" />
        <dc:title></dc:title>
      </cc:Work>
    </rdf:RDF>
  </metadata>
  <g
     inkscape:label="Calque 1"
     inkscape:groupmode="layer"
     id="layer1">
    <flowRoot
       xml:space="preserve"
       id="flowRoot4703"
       style="fill:black;stroke:none;stroke-opacity:1;stroke-width:1px;stroke-linejoin:miter;stroke-linecap:butt;fill-opacity:1;font-family:sans-serif;font-style:normal;font-weight:normal;font-size:40px;line-height:125%;letter-spacing:0px;word-spacing:0px"><flowRegion
         id="flowRegion4705"><rect
           id="rect4707"
           width="734.28571"
           height="182.85715"
           x="5.7142859"
           y="9.5050621" /></flowRegion><flowPara
         id="flowPara4709"></flowPara></flowRoot>    <g
       style="font-style:normal;font-weight:normal;font-size:40px;line-height:125%;font-family:sans-serif;letter-spacing:0px;word-spacing:0px;fill:#000000;fill-opacity:1;stroke:none;stroke-width:1px;stroke-linecap:butt;stroke-linejoin:miter;stroke-opacity:1"
       id="flowRoot4715">
      <path
         d="m 27.607422,91.023437 10.17,0 0,-63 -8.82,0 0,37.71 -0.18,0 -9.99,-37.71 -12.4200001,0 0,63 8.9100001,0 0,-45.63 0.18,0 12.15,45.63 z"
         style="font-style:normal;font-variant:normal;font-weight:normal;font-stretch:normal;font-size:90px;font-family:'Bebas Neue';-inkscape-font-specification:'Bebas Neue'"
         id="path4724" />
      <path
         d="m 44.953516,91.023437 9.9,0 0,-63 -9.9,0 0,63 z"
         style="font-style:normal;font-variant:normal;font-weight:normal;font-stretch:normal;font-size:90px;font-family:'Bebas Neue';-inkscape-font-specification:'Bebas Neue'"
         id="path4726" />
      <path
         d="m 83.154297,91.023437 10.17,0 0,-63 -8.82,0 0,37.71 -0.18,0 -9.99,-37.71 -12.42,0 0,63 8.91,0 0,-45.63 0.18,0 12.15,45.63 z"
         style="font-style:normal;font-variant:normal;font-weight:normal;font-stretch:normal;font-size:90px;font-family:'Bebas Neue';-inkscape-font-specification:'Bebas Neue'"
         id="path4728" />
      <path
         d="m 97.800391,91.023437 c 1.62,0.180001 2.969999,0.180001 4.769999,0.180001 7.47,0 14.22,-3.240001 14.22,-15.84 l 0,-47.340001 -9.9,0 0,48.060001 c 0,4.86 -2.52,6.03 -5.67,6.03 -1.08,0 -2.339999,0 -3.419999,-0.09 l 0,9 z"
         style="font-style:normal;font-variant:normal;font-weight:normal;font-stretch:normal;font-size:90px;font-family:'Bebas Neue';-inkscape-font-specification:'Bebas Neue'"
         id="path4730" />
      <path
         d="m 145.48773,28.023437 -14.49,0 -10.08,63 9.09,0 1.71,-11.43 12.15,0 1.71,11.43 9.99,0 -10.08,-63 z m -7.83,11.16 0.18,0 4.68,31.86 -9.54,0 4.68,-31.86 z"
         style="font-style:normal;font-variant:normal;font-weight:normal;font-stretch:normal;font-size:90px;font-family:'Bebas Neue';-inkscape-font-specification:'Bebas Neue'"
         id="path4732" />
    </g>
  </g>
</svg>
